<svg xmlns="http://www.w3.org/2000/svg" width="375" viewBox="0 0 375 375" height="375" version="1.0"><path fill="#004D40" d="M 62.5 125 L 62.5 223.796875 C 51.992188 225.78125 46.476562 226.5625 38.109375 226.5625 C 13.046875 226.539062 0 215.351562 0 193.875 C 0 173.179688 13.835938 159.75 35.28125 159.75 C 38.609375 159.75 41.140625 160.007812 44.210938 160.796875 L 44.210938 125 Z M 44.210938 177.125 C 41.804688 176.34375 39.828125 176.078125 37.289062 176.078125 C 26.914062 176.078125 20.914062 182.398438 20.914062 193.484375 C 20.914062 204.273438 26.648438 210.226562 37.15625 210.226562 C 39.429688 210.226562 41.273438 210.101562 44.210938 209.703125 Z M 44.210938 177.125" fill-rule="evenodd"/><path fill="#004D40" d="M 93.75 156.609375 L 93.75 208.3125 C 93.75 224.53125 92.539062 233.5 88.96875 240.21875 C 85.640625 246.679688 81.257812 250.757812 72.203125 255.257812 L 53.164062 246.28125 C 62.21875 242.070312 66.609375 238.351562 69.40625 232.671875 C 72.335938 226.867188 73.265625 218.96875 73.265625 201.289062 L 73.265625 156.59375 L 93.75 156.59375 Z M 93.75 156.609375" fill-rule="evenodd"/><path fill="#004D40" d="M 107.296875 163.09375 C 116.171875 158.78125 124.664062 156.882812 133.921875 156.882812 C 144.242188 156.882812 151.023438 159.71875 154.023438 165.265625 C 155.703125 168.367188 156.25 172.40625 156.25 181.054688 L 156.25 223.296875 C 147.25 224.632812 135.890625 225.59375 127.554688 225.59375 C 110.710938 225.59375 103.15625 219.515625 103.15625 206.023438 C 103.15625 191.429688 113.195312 184.6875 137.851562 182.539062 L 137.851562 177.96875 C 137.851562 174.195312 136.015625 172.828125 130.945312 172.828125 C 123.523438 172.828125 115.164062 175 107.320312 179.171875 Z M 138.757812 196.148438 C 125.460938 197.484375 121.140625 199.65625 121.140625 205.0625 C 121.140625 209.109375 123.625 211.007812 129.109375 211.007812 C 132.109375 211.007812 134.851562 210.742188 138.757812 210.070312 Z M 138.757812 196.148438" fill-rule="evenodd"/><path fill="#004D40" d="M 167.328125 161.664062 C 179.203125 158.375 188.984375 156.875 198.898438 156.875 C 209.195312 156.875 216.65625 159.351562 221.078125 164.140625 C 225.234375 168.65625 226.5625 173.609375 226.5625 184.164062 L 226.5625 225.59375 L 206.453125 225.59375 L 206.453125 185.007812 C 206.453125 176.898438 203.835938 173.882812 196.671875 173.882812 C 193.929688 173.882812 191.445312 174.15625 187.40625 175.40625 L 187.40625 225.601562 L 167.328125 225.601562 Z M 167.328125 161.664062" fill-rule="evenodd"/><path fill="#004D40" d="M 235.757812 234.421875 C 242.9375 238.21875 250.125 239.96875 257.726562 239.96875 C 271.171875 239.96875 276.898438 236.273438 276.898438 222.96875 L 276.898438 222.5625 C 272.914062 224.578125 268.890625 225.421875 263.585938 225.421875 C 245.601562 225.421875 234.375 213.335938 234.375 194.195312 C 234.375 170.421875 251.101562 156.992188 281.046875 156.992188 C 289.84375 156.992188 297.976562 157.9375 307.820312 159.984375 L 300.796875 175.0625 C 295.335938 173.984375 300.351562 174.898438 296.234375 174.5 L 296.234375 176.679688 L 296.5 185.507812 L 296.632812 196.921875 C 296.765625 199.78125 296.765625 202.625 296.898438 205.484375 L 296.898438 211.1875 C 296.898438 229.117188 295.414062 235.648438 291.03125 242.59375 C 284.640625 252.765625 273.578125 257.804688 257.859375 257.804688 C 249.859375 257.804688 242.9375 256.59375 235.757812 253.734375 Z M 276.5 173.835938 L 274.351562 173.835938 C 270.367188 173.703125 265.695312 174.78125 262.492188 176.828125 C 257.585938 179.679688 255.046875 184.851562 255.046875 192.171875 C 255.046875 202.617188 260.117188 208.59375 269.171875 208.59375 C 271.96875 208.59375 274.242188 208.054688 276.882812 207.25 L 276.882812 200.039062 C 276.882812 197.585938 276.75 194.867188 276.75 192.015625 L 276.617188 182.375 L 276.484375 175.453125 L 276.484375 173.835938 Z M 276.5 173.835938" fill-rule="evenodd"/><path fill="#004D40" d="M 340.359375 156.609375 C 361.867188 156.609375 375 169.578125 375 190.578125 C 375 212.109375 361.3125 225.601562 339.5 225.601562 C 317.96875 225.601562 304.6875 212.640625 304.6875 191.773438 C 304.726562 170.109375 318.414062 156.609375 340.359375 156.609375 Z M 339.914062 209 C 348.171875 209 353.046875 202.453125 353.046875 191.078125 C 353.046875 179.835938 348.304688 173.15625 340.054688 173.15625 C 331.515625 173.15625 326.632812 179.703125 326.632812 191.078125 C 326.640625 202.453125 331.546875 209 339.914062 209 Z M 339.914062 209" fill-rule="evenodd"/></svg>