<svg xmlns="http://www.w3.org/2000/svg" width="375" viewBox="0 0 375 375" height="375" version="1.0"><path fill="#FFD600" d="M-37.5 -37.5H412.5V412.5H-37.5z"/><path fill="#000001" d="M 244.707031 282.382812 C 251.960938 294.160156 259.839844 305.445312 276.53125 305.445312 C 290.554688 305.445312 297.910156 298.476562 297.910156 288.835938 C 297.910156 277.300781 290.300781 273.203125 274.878906 266.484375 L 266.421875 262.878906 C 242.015625 252.527344 225.78125 239.554688 225.78125 212.152344 C 225.78125 186.894531 245.117188 167.675781 275.328125 167.675781 C 296.839844 167.675781 312.296875 175.128906 323.449219 194.640625 L 297.101562 211.480469 C 291.308594 201.125 285.042969 197.050781 275.328125 197.050781 C 265.414062 197.050781 259.136719 203.304688 259.136719 211.480469 C 259.136719 221.582031 265.425781 225.667969 279.9375 231.925781 L 288.394531 235.53125 C 317.160156 247.78125 333.382812 260.292969 333.382812 288.417969 C 333.382812 318.722656 309.449219 335.332031 277.320312 335.332031 C 245.890625 335.332031 228.046875 319.5625 218.113281 300.039062 Z M 123.296875 283.242188 C 128.597656 292.734375 136.65625 300.039062 148.246094 300.039062 C 159.332031 300.039062 165.714844 295.660156 165.714844 278.628906 L 165.714844 167.667969 L 200.644531 167.667969 L 200.644531 283.996094 C 200.644531 319.277344 180.175781 335.332031 150.289062 335.332031 C 123.285156 335.332031 103.792969 317.035156 95.851562 300.039062 Z M 123.296875 283.242188"/></svg>