<svg xmlns="http://www.w3.org/2000/svg" width="375" viewBox="0 0 375 375" height="375" version="1.0"><defs><clipPath id="a"><path d="M 0 137.386719 L 375 137.386719 L 375 237.886719 L 0 237.886719 Z M 0 137.386719"/></clipPath></defs><g clip-path="url(#a)"><path fill="#EF533F" d="M 90.90625 237.660156 C 90.511719 237.664062 90.140625 237.566406 89.792969 237.371094 C 89.449219 237.175781 89.175781 236.90625 88.972656 236.566406 L 71.953125 208.097656 L 40.125 216.78125 C 39.882812 216.839844 39.636719 216.855469 39.386719 216.832031 C 39.140625 216.808594 38.902344 216.746094 38.675781 216.644531 C 38.449219 216.542969 38.242188 216.40625 38.058594 216.234375 C 37.878906 216.0625 37.726562 215.867188 37.609375 215.648438 L 0.414062 145.535156 C 0.332031 145.375 0.265625 145.207031 0.21875 145.027344 C 0.175781 144.851562 0.152344 144.671875 0.152344 144.492188 C 0.148438 144.308594 0.167969 144.128906 0.210938 143.953125 C 0.253906 143.777344 0.316406 143.605469 0.398438 143.445312 C 0.480469 143.28125 0.582031 143.132812 0.699219 142.996094 C 0.820312 142.855469 0.953125 142.734375 1.101562 142.628906 C 1.25 142.527344 1.40625 142.441406 1.574219 142.371094 C 1.746094 142.304688 1.917969 142.261719 2.097656 142.234375 L 33.675781 137.980469 C 34.125 137.917969 34.550781 137.984375 34.957031 138.175781 C 35.363281 138.371094 35.679688 138.660156 35.914062 139.046875 L 74.003906 202.847656 L 118.304688 190.765625 L 103.53125 169.84375 C 103.425781 169.695312 103.339844 169.535156 103.269531 169.367188 C 103.203125 169.195312 103.15625 169.019531 103.128906 168.839844 C 103.105469 168.65625 103.101562 168.476562 103.121094 168.292969 C 103.140625 168.113281 103.179688 167.933594 103.242188 167.761719 C 103.304688 167.589844 103.386719 167.429688 103.488281 167.277344 C 103.589844 167.125 103.707031 166.984375 103.839844 166.863281 C 103.976562 166.738281 104.121094 166.632812 104.285156 166.546875 C 104.445312 166.457031 104.613281 166.390625 104.789062 166.34375 L 125.511719 161.429688 C 125.933594 161.328125 126.351562 161.351562 126.761719 161.492188 C 127.171875 161.632812 127.515625 161.871094 127.789062 162.210938 L 145.722656 184.671875 C 145.839844 184.816406 145.9375 184.976562 146.015625 185.144531 C 146.09375 185.316406 146.148438 185.492188 146.183594 185.679688 C 146.214844 185.863281 146.226562 186.046875 146.214844 186.234375 C 146.199219 186.421875 146.164062 186.605469 146.109375 186.78125 C 146.050781 186.960938 145.972656 187.128906 145.871094 187.289062 C 145.773438 187.445312 145.652344 187.589844 145.519531 187.71875 C 145.382812 187.847656 145.234375 187.957031 145.070312 188.050781 C 144.910156 188.140625 144.738281 188.210938 144.558594 188.261719 L 125.71875 193.414062 L 142.210938 216.679688 C 142.3125 216.820312 142.398438 216.972656 142.460938 217.136719 C 142.527344 217.296875 142.574219 217.464844 142.601562 217.640625 C 142.628906 217.8125 142.632812 217.984375 142.621094 218.160156 C 142.609375 218.335938 142.574219 218.503906 142.519531 218.671875 C 142.46875 218.839844 142.398438 218.996094 142.308594 219.148438 C 142.21875 219.296875 142.113281 219.433594 141.988281 219.558594 C 141.867188 219.683594 141.734375 219.796875 141.585938 219.890625 C 141.4375 219.984375 141.28125 220.058594 141.117188 220.117188 L 91.621094 237.523438 C 91.390625 237.609375 91.148438 237.65625 90.902344 237.660156 Z M 76.460938 206.863281 L 91.886719 232.660156 L 136.84375 216.878906 L 121.144531 194.683594 Z M 5.910156 146.246094 L 40.71875 211.941406 L 69.609375 204.082031 L 32.820312 142.648438 Z M 109.210938 169.976562 L 123.0625 189.511719 L 140.242188 184.824219 L 125.292969 166.15625 Z M 169.414062 163.15625 L 173.917969 163.15625 L 173.917969 211.5625 L 169.433594 211.5625 Z M 217.890625 176.640625 L 217.890625 211.5625 L 213.46875 211.5625 L 213.46875 205.519531 C 211.753906 207.671875 209.597656 209.4375 207.148438 210.6875 C 206.316406 211.082031 205.464844 211.414062 204.582031 211.675781 C 203.703125 211.941406 202.808594 212.132812 201.894531 212.257812 C 200.984375 212.382812 200.070312 212.433594 199.152344 212.414062 C 198.234375 212.394531 197.324219 212.300781 196.417969 212.140625 C 195.515625 211.976562 194.628906 211.746094 193.757812 211.445312 C 192.890625 211.144531 192.050781 210.777344 191.238281 210.34375 C 190.429688 209.910156 189.65625 209.417969 188.921875 208.863281 C 188.1875 208.3125 187.5 207.703125 186.859375 207.042969 C 186.007812 206.183594 185.25 205.25 184.585938 204.238281 C 183.921875 203.230469 183.367188 202.164062 182.917969 201.039062 C 182.464844 199.914062 182.132812 198.757812 181.917969 197.566406 C 181.699219 196.378906 181.601562 195.175781 181.628906 193.964844 C 181.609375 192.769531 181.710938 191.578125 181.933594 190.402344 C 182.15625 189.222656 182.492188 188.082031 182.949219 186.972656 C 183.402344 185.863281 183.960938 184.8125 184.628906 183.816406 C 185.296875 182.820312 186.054688 181.902344 186.90625 181.0625 C 187.726562 180.199219 188.625 179.429688 189.605469 178.753906 C 190.582031 178.078125 191.621094 177.507812 192.71875 177.046875 C 193.8125 176.585938 194.945312 176.242188 196.113281 176.015625 C 197.28125 175.789062 198.457031 175.6875 199.648438 175.707031 C 202.347656 175.671875 205.015625 176.296875 207.410156 177.535156 C 209.878906 178.878906 211.910156 180.707031 213.507812 183.023438 L 213.507812 176.632812 Z M 199.988281 180.113281 C 198.773438 180.105469 197.574219 180.257812 196.398438 180.574219 C 195.222656 180.890625 194.105469 181.355469 193.054688 181.972656 C 192.003906 182.59375 191.054688 183.339844 190.203125 184.214844 C 189.355469 185.085938 188.636719 186.058594 188.046875 187.128906 C 185.542969 191.496094 185.542969 196.871094 188.046875 201.238281 C 189.234375 203.40625 190.984375 205.214844 193.109375 206.472656 C 195.210938 207.730469 197.484375 208.355469 199.929688 208.347656 C 202.417969 208.347656 204.742188 207.730469 206.898438 206.488281 C 209.019531 205.316406 210.777344 203.570312 211.960938 201.453125 C 213.1875 199.214844 213.78125 196.820312 213.734375 194.265625 C 213.789062 192.375 213.46875 190.550781 212.777344 188.792969 C 212.085938 187.03125 211.078125 185.480469 209.753906 184.132812 C 208.476562 182.808594 206.988281 181.796875 205.289062 181.09375 C 203.589844 180.394531 201.824219 180.0625 199.984375 180.101562 Z M 226.277344 176.640625 L 230.855469 176.640625 L 230.855469 181.742188 C 232.011719 179.964844 233.453125 178.464844 235.183594 177.238281 C 236.609375 176.261719 238.191406 175.761719 239.921875 175.746094 C 241.351562 175.792969 242.679688 176.191406 243.902344 176.9375 L 241.554688 180.757812 C 240.789062 180.390625 239.980469 180.1875 239.132812 180.148438 C 238.320312 180.175781 237.542969 180.347656 236.796875 180.664062 C 236.050781 180.984375 235.386719 181.425781 234.804688 181.992188 C 233.1875 183.589844 232.125 185.5 231.621094 187.71875 C 231.089844 189.710938 230.824219 193.730469 230.824219 199.78125 L 230.824219 211.597656 L 226.246094 211.597656 Z M 282.371094 176.640625 L 282.371094 211.5625 L 277.953125 211.5625 L 277.953125 205.519531 C 276.238281 207.671875 274.082031 209.4375 271.632812 210.6875 C 270.800781 211.082031 269.945312 211.414062 269.066406 211.675781 C 268.1875 211.941406 267.292969 212.132812 266.378906 212.257812 C 265.46875 212.382812 264.554688 212.433594 263.636719 212.414062 C 262.71875 212.394531 261.808594 212.300781 260.902344 212.140625 C 259.996094 211.976562 259.113281 211.746094 258.242188 211.445312 C 257.375 211.144531 256.535156 210.777344 255.722656 210.34375 C 254.914062 209.910156 254.140625 209.417969 253.40625 208.863281 C 252.671875 208.3125 251.984375 207.703125 251.34375 207.042969 C 250.492188 206.183594 249.734375 205.25 249.070312 204.238281 C 248.40625 203.230469 247.851562 202.164062 247.398438 201.039062 C 246.949219 199.914062 246.617188 198.757812 246.402344 197.566406 C 246.183594 196.378906 246.085938 195.175781 246.113281 193.964844 C 246.042969 189.121094 247.945312 184.453125 251.398438 181.0625 C 252.21875 180.199219 253.117188 179.429688 254.097656 178.753906 C 255.074219 178.078125 256.113281 177.507812 257.207031 177.046875 C 258.304688 176.585938 259.4375 176.242188 260.605469 176.015625 C 261.769531 175.789062 262.949219 175.6875 264.136719 175.707031 C 266.839844 175.671875 269.503906 176.296875 271.902344 177.535156 C 274.367188 178.878906 276.402344 180.707031 278 183.023438 L 278 176.632812 Z M 264.46875 180.113281 C 263.253906 180.105469 262.054688 180.257812 260.878906 180.574219 C 259.703125 180.890625 258.589844 181.355469 257.535156 181.972656 C 256.484375 182.59375 255.535156 183.339844 254.683594 184.214844 C 253.835938 185.085938 253.117188 186.058594 252.527344 187.128906 C 250.023438 191.496094 250.023438 196.871094 252.527344 201.238281 C 253.714844 203.40625 255.464844 205.214844 257.589844 206.472656 C 259.691406 207.730469 261.964844 208.355469 264.410156 208.347656 C 266.898438 208.347656 269.222656 207.730469 271.378906 206.488281 C 273.5 205.316406 275.257812 203.570312 276.441406 201.453125 C 277.667969 199.214844 278.261719 196.820312 278.214844 194.265625 C 278.273438 192.371094 277.957031 190.539062 277.265625 188.773438 C 276.574219 187.007812 275.566406 185.449219 274.238281 184.097656 C 272.960938 182.773438 271.476562 181.761719 269.777344 181.0625 C 268.078125 180.359375 266.3125 180.027344 264.476562 180.066406 Z M 289.167969 176.640625 L 293.949219 176.640625 L 305.636719 202.089844 L 317.203125 176.640625 L 321.980469 176.640625 L 306.050781 211.5625 L 305.257812 211.5625 Z M 358.097656 199.972656 L 361.90625 201.964844 C 360.832031 204.191406 359.402344 206.160156 357.617188 207.871094 C 356.011719 209.363281 354.183594 210.503906 352.140625 211.289062 C 349.917969 212.109375 347.621094 212.5 345.253906 212.464844 C 339.574219 212.464844 335.128906 210.613281 331.921875 206.90625 C 330.371094 205.164062 329.1875 203.203125 328.363281 201.019531 C 327.539062 198.835938 327.132812 196.578125 327.144531 194.246094 C 327.097656 189.945312 328.535156 185.761719 331.210938 182.4375 C 332.015625 181.375 332.929688 180.417969 333.960938 179.574219 C 334.992188 178.730469 336.109375 178.019531 337.3125 177.445312 C 338.511719 176.871094 339.765625 176.445312 341.066406 176.171875 C 342.371094 175.898438 343.6875 175.785156 345.015625 175.828125 C 346.386719 175.78125 347.742188 175.898438 349.082031 176.179688 C 350.421875 176.460938 351.710938 176.894531 352.945312 177.480469 C 354.183594 178.070312 355.335938 178.796875 356.398438 179.664062 C 357.460938 180.527344 358.40625 181.507812 359.238281 182.597656 C 361.757812 185.792969 363.027344 189.785156 363.046875 194.578125 L 331.691406 194.578125 C 331.640625 198.28125 333.035156 201.859375 335.570312 204.550781 C 336.769531 205.824219 338.175781 206.800781 339.789062 207.480469 C 341.402344 208.15625 343.082031 208.476562 344.832031 208.4375 C 346.609375 208.441406 348.335938 208.132812 350.007812 207.511719 C 351.582031 206.953125 353.007812 206.132812 354.285156 205.054688 C 355.808594 203.578125 357.078125 201.910156 358.09375 200.046875 Z M 358.097656 190.597656 C 357.644531 188.496094 356.773438 186.582031 355.488281 184.859375 C 354.25 183.34375 352.742188 182.191406 350.960938 181.394531 C 349.113281 180.523438 347.097656 180.074219 345.058594 180.074219 C 343.433594 180.039062 341.859375 180.308594 340.335938 180.882812 C 338.816406 181.453125 337.453125 182.285156 336.246094 183.378906 C 334.453125 185 333.097656 187.394531 332.179688 190.566406 Z M 370.703125 163.195312 L 375.1875 163.195312 L 375.1875 211.597656 L 370.703125 211.597656 Z M 370.703125 163.195312"/></g></svg>