<svg xmlns="http://www.w3.org/2000/svg" width="224.88" viewBox="0 0 224.88 112.5" height="112.5" version="1.0"><defs><clipPath id="a"><path d="M 0.4375 5.882812 L 107.214844 5.882812 L 107.214844 105.9375 L 0.4375 105.9375 Z M 0.4375 5.882812"/></clipPath><clipPath id="b"><path d="M 200 68 L 224.324219 68 L 224.324219 93 L 200 93 Z M 200 68"/></clipPath></defs><g clip-path="url(#a)"><path fill="#38B6FF" d="M 103.625 40.289062 C 103.539062 43.644531 103.605469 47.023438 103.539062 50.378906 C 93.164062 50.378906 82.765625 50.335938 72.390625 50.398438 C 72.410156 64.738281 72.410156 79.097656 72.390625 93.4375 C 72.324219 93.800781 72.324219 94.140625 72.410156 94.441406 C 74.566406 95.339844 76.105469 97.476562 76.105469 99.953125 C 76.105469 103.246094 73.4375 105.9375 70.125 105.9375 C 70.105469 105.9375 70.105469 105.9375 70.085938 105.9375 C 69.804688 105.9375 69.527344 105.917969 69.25 105.875 C 66.367188 105.46875 64.128906 102.96875 64.128906 99.953125 C 64.128906 97.519531 65.578125 95.445312 67.648438 94.503906 C 67.800781 78.285156 67.671875 62.042969 67.714844 45.824219 C 78.113281 45.78125 88.511719 45.824219 98.929688 45.78125 C 98.949219 43.964844 98.949219 42.128906 98.929688 40.3125 C 96.773438 39.414062 95.257812 37.277344 95.257812 34.796875 C 95.257812 32.296875 96.792969 30.160156 98.949219 29.265625 C 98.90625 24.136719 98.972656 19.007812 98.929688 13.878906 C 77.472656 13.921875 56.015625 13.835938 34.554688 13.921875 C 33.722656 16.207031 31.523438 17.832031 28.960938 17.832031 C 26.378906 17.832031 24.179688 16.1875 23.347656 13.898438 C 17.242188 13.855469 11.15625 13.921875 5.070312 13.855469 C 4.921875 24.5 5.027344 35.160156 5.027344 45.804688 C 6.480469 45.78125 7.933594 45.761719 9.382812 45.71875 C 10.28125 43.558594 12.414062 42.042969 14.890625 42.042969 C 17.390625 42.042969 19.527344 43.582031 20.421875 45.761719 C 20.527344 45.78125 20.636719 45.78125 20.742188 45.78125 C 22.109375 45.78125 36.285156 45.78125 36.285156 45.847656 C 36.308594 64.289062 36.308594 82.730469 36.265625 101.195312 C 42.925781 101.234375 49.628906 101.40625 56.292969 101.109375 C 56.25 89.804688 56.25 78.476562 56.292969 67.171875 C 56.207031 67.089844 56.121094 67.003906 56.035156 66.917969 C 53.941406 65.976562 52.492188 63.902344 52.492188 61.46875 C 52.492188 58.96875 54.027344 56.808594 56.226562 55.933594 C 56.335938 48.433594 56.226562 40.933594 56.292969 33.429688 C 66.496094 33.132812 76.722656 33.453125 86.953125 33.28125 C 86.929688 30.84375 86.910156 28.410156 86.886719 25.996094 C 82.789062 25.972656 78.6875 25.996094 74.589844 25.972656 C 73.734375 28.21875 71.558594 29.820312 69.015625 29.820312 C 66.476562 29.820312 64.320312 28.238281 63.445312 25.996094 C 48.15625 25.929688 32.890625 26.058594 17.605469 25.929688 C 17.132812 28.367188 17.242188 30.84375 17.285156 33.304688 C 27.46875 33.34375 37.632812 33.324219 47.816406 33.324219 C 47.964844 50.25 47.835938 67.171875 47.859375 84.097656 C 50.078125 84.972656 51.679688 87.132812 51.679688 89.675781 C 51.679688 92.964844 49.011719 95.660156 45.703125 95.660156 C 42.414062 95.660156 39.722656 92.988281 39.722656 89.675781 C 39.722656 87.304688 41.109375 85.25 43.117188 84.289062 L 43.117188 37.917969 C 32.976562 37.898438 22.8125 38.003906 12.671875 37.875 C 12.863281 32.363281 12.332031 26.828125 13.035156 21.355469 C 29.902344 21.378906 46.769531 21.484375 63.636719 21.292969 C 64.597656 19.285156 66.648438 17.875 69.015625 17.875 C 71.472656 17.875 73.5625 19.347656 74.480469 21.464844 C 74.566406 21.527344 74.675781 21.59375 74.761719 21.636719 C 80.355469 21.847656 85.949219 21.65625 91.5625 21.699219 C 91.542969 27.105469 91.5625 32.511719 91.542969 37.917969 C 81.207031 37.941406 70.875 37.875 60.539062 37.960938 C 60.539062 43.921875 60.476562 49.90625 60.5625 55.890625 C 62.824219 56.746094 64.449219 58.925781 64.449219 61.488281 C 64.449219 64.011719 62.890625 66.148438 60.710938 67.023438 C 60.648438 67.089844 60.582031 67.152344 60.519531 67.195312 C 60.5625 80.101562 60.539062 92.988281 60.539062 105.894531 C 50.933594 105.832031 41.347656 105.875 31.738281 105.875 C 31.714844 87.390625 31.757812 68.90625 31.714844 50.417969 C 27.960938 50.378906 24.179688 50.378906 20.402344 50.398438 C 19.484375 52.535156 17.367188 54.03125 14.914062 54.03125 C 12.457031 54.03125 10.34375 52.535156 9.425781 50.417969 C 6.457031 50.378906 3.492188 50.398438 0.523438 50.398438 C 0.460938 36.679688 0.4375 22.960938 0.523438 9.261719 C 8.230469 9.21875 15.9375 9.390625 23.644531 9.175781 C 24.628906 7.230469 26.636719 5.886719 28.960938 5.886719 C 31.3125 5.886719 33.339844 7.253906 34.320312 9.21875 C 57.402344 9.328125 80.460938 9.242188 103.539062 9.261719 C 103.648438 15.949219 103.539062 22.617188 103.582031 29.308594 C 105.71875 30.226562 107.214844 32.339844 107.214844 34.796875 C 107.214844 37.257812 105.738281 39.371094 103.625 40.289062 Z M 103.625 40.289062"/></g><g fill="#38B6FF" fill-opacity=".4"><g><g><path d="M 1.769531 -23.710938 L 1.769531 0 L 7.363281 0 L 7.363281 -4.53125 L 14.191406 -4.53125 L 18.617188 0 L 25.410156 0 L 20.917969 -4.53125 L 25.480469 -4.53125 L 25.480469 -23.710938 Z M 7.363281 -10.121094 L 7.363281 -18.121094 L 19.890625 -18.121094 L 19.890625 -10.121094 Z M 7.363281 -10.121094" transform="translate(80.662 92.582)"/></g></g></g><g fill="#38B6FF" fill-opacity=".4"><g><g><path d="M 7.363281 -16.421875 L 1.769531 -16.421875 L 1.769531 0 L 7.363281 0 Z M 1.769531 -18.121094 L 7.363281 -18.121094 L 7.363281 -23.710938 L 1.769531 -23.710938 Z M 1.769531 -18.121094" transform="translate(107.909 92.582)"/></g></g></g><g fill="#38B6FF" fill-opacity=".4"><g><g><path d="M 1.769531 -5.59375 L 1.769531 0 L 25.480469 0 L 25.480469 -14.652344 L 7.363281 -14.652344 L 7.363281 -18.121094 L 25.480469 -18.121094 L 25.480469 -23.710938 L 1.769531 -23.710938 L 1.769531 -9.058594 L 19.890625 -9.058594 L 19.890625 -5.59375 Z M 1.769531 -5.59375" transform="translate(117.038 92.582)"/></g></g></g><g fill="#38B6FF" fill-opacity=".4"><g><g><path d="M 1.769531 -23.710938 L 1.769531 -18.121094 L 10.828125 -18.121094 L 10.828125 0 L 16.421875 0 L 16.421875 -18.121094 L 25.480469 -18.121094 L 25.480469 -23.710938 Z M 1.769531 -23.710938" transform="translate(144.286 92.582)"/></g></g></g><g fill="#38B6FF" fill-opacity=".4"><g><g><path d="M 25.480469 -23.710938 L 1.769531 -23.710938 L 1.769531 0 L 7.363281 0 L 7.363281 -4.53125 L 19.890625 -4.53125 L 19.890625 0 L 25.480469 0 Z M 7.363281 -10.121094 L 7.363281 -18.121094 L 19.890625 -18.121094 L 19.890625 -10.121094 Z M 7.363281 -10.121094" transform="translate(171.533 92.582)"/></g></g></g><g clip-path="url(#b)"><g fill="#38B6FF" fill-opacity=".4"><g><g><path d="M 19.890625 -23.710938 L 19.890625 -10.9375 L 7.363281 -19.820312 L 7.363281 -23.710938 L 1.769531 -23.710938 L 1.769531 0 L 7.363281 0 L 7.363281 -12.742188 L 19.890625 -3.859375 L 19.890625 0 L 25.234375 0 L 25.480469 0.175781 L 25.480469 -23.710938 Z M 19.890625 -23.710938" transform="translate(198.78 92.582)"/></g></g></g></g><g fill="#38B6FF"><g><g><path d="M 1.769531 -23.710938 L 1.769531 0 L 7.363281 0 L 7.363281 -4.53125 L 14.191406 -4.53125 L 18.617188 0 L 25.410156 0 L 20.917969 -4.53125 L 25.480469 -4.53125 L 25.480469 -23.710938 Z M 7.363281 -10.121094 L 7.363281 -18.121094 L 19.890625 -18.121094 L 19.890625 -10.121094 Z M 7.363281 -10.121094" transform="translate(79.06 90.98)"/></g></g></g><g fill="#38B6FF"><g><g><path d="M 7.363281 -16.421875 L 1.769531 -16.421875 L 1.769531 0 L 7.363281 0 Z M 1.769531 -18.121094 L 7.363281 -18.121094 L 7.363281 -23.710938 L 1.769531 -23.710938 Z M 1.769531 -18.121094" transform="translate(106.307 90.98)"/></g></g></g><g fill="#38B6FF"><g><g><path d="M 1.769531 -5.59375 L 1.769531 0 L 25.480469 0 L 25.480469 -14.652344 L 7.363281 -14.652344 L 7.363281 -18.121094 L 25.480469 -18.121094 L 25.480469 -23.710938 L 1.769531 -23.710938 L 1.769531 -9.058594 L 19.890625 -9.058594 L 19.890625 -5.59375 Z M 1.769531 -5.59375" transform="translate(115.437 90.98)"/></g></g></g><g fill="#38B6FF"><g><g><path d="M 1.769531 -23.710938 L 1.769531 -18.121094 L 10.828125 -18.121094 L 10.828125 0 L 16.421875 0 L 16.421875 -18.121094 L 25.480469 -18.121094 L 25.480469 -23.710938 Z M 1.769531 -23.710938" transform="translate(142.684 90.98)"/></g></g></g><g fill="#38B6FF"><g><g><path d="M 25.480469 -23.710938 L 1.769531 -23.710938 L 1.769531 0 L 7.363281 0 L 7.363281 -4.53125 L 19.890625 -4.53125 L 19.890625 0 L 25.480469 0 Z M 7.363281 -10.121094 L 7.363281 -18.121094 L 19.890625 -18.121094 L 19.890625 -10.121094 Z M 7.363281 -10.121094" transform="translate(169.931 90.98)"/></g></g></g><g fill="#38B6FF"><g><g><path d="M 19.890625 -23.710938 L 19.890625 -10.9375 L 7.363281 -19.820312 L 7.363281 -23.710938 L 1.769531 -23.710938 L 1.769531 0 L 7.363281 0 L 7.363281 -12.742188 L 19.890625 -3.859375 L 19.890625 0 L 25.234375 0 L 25.480469 0.175781 L 25.480469 -23.710938 Z M 19.890625 -23.710938" transform="translate(197.178 90.98)"/></g></g></g></svg>