<svg xmlns="http://www.w3.org/2000/svg" width="375" viewBox="0 0 375 375" height="375" version="1.0"><defs><clipPath id="a"><path d="M 0 74.414062 L 375 74.414062 L 375 300.914062 L 0 300.914062 Z M 0 74.414062"/></clipPath></defs><g clip-path="url(#a)"><path d="M 88.515625 133.484375 L 159.222656 133.484375 L 159.222656 139.113281 L 94.996094 139.113281 L 94.996094 181.46875 L 155.394531 181.46875 L 155.394531 187.097656 L 94.996094 187.097656 L 94.996094 233.601562 L 159.957031 233.601562 L 159.957031 239.234375 L 88.515625 239.234375 Z M 165.554688 133.484375 L 173.070312 133.484375 L 206.359375 179.988281 L 240.386719 133.484375 L 286.667969 74.414062 L 210.628906 184.878906 L 249.816406 239.234375 L 242.003906 239.234375 L 206.359375 189.761719 L 170.566406 239.234375 L 162.90625 239.234375 L 202.378906 184.878906 Z M 252.613281 139.113281 L 252.613281 133.484375 L 333.191406 133.484375 L 333.191406 139.113281 L 296.066406 139.113281 L 296.066406 239.230469 L 289.589844 239.230469 L 289.589844 139.113281 Z M 0.0625 133.484375 L 8.164062 133.484375 L 119.878906 300.898438 L 73.714844 239.234375 L 6.839844 141.484375 L 6.546875 239.234375 L 0.0625 239.234375 Z M 332.53125 231.910156 C 331.214844 231.910156 330.21875 230.875 330.21875 229.546875 C 330.21875 228.21875 331.214844 227.195312 332.53125 227.195312 C 333.871094 227.195312 334.851562 228.21875 334.851562 229.546875 C 334.851562 230.875 333.871094 231.910156 332.53125 231.910156 Z M 338.902344 225.707031 L 342.371094 225.707031 C 342.414062 227.589844 343.792969 228.851562 345.804688 228.851562 C 348.0625 228.851562 349.335938 227.496094 349.335938 224.949219 L 349.335938 208.828125 L 352.871094 208.828125 L 352.871094 224.964844 C 352.871094 229.546875 350.222656 232.1875 345.84375 232.1875 C 341.726562 232.1875 338.902344 229.628906 338.902344 225.707031 Z M 357.492188 225.5 L 360.992188 225.5 C 361.285156 227.671875 363.398438 229.042969 366.445312 229.042969 C 369.28125 229.042969 371.359375 227.574219 371.359375 225.550781 C 371.359375 223.8125 370.035156 222.765625 367.023438 222.054688 L 364.09375 221.34375 C 359.980469 220.382812 358.105469 218.386719 358.105469 215.035156 C 358.105469 210.976562 361.414062 208.277344 366.378906 208.277344 C 371 208.277344 374.367188 210.976562 374.574219 214.816406 L 371.140625 214.816406 C 370.808594 212.710938 368.980469 211.398438 366.328125 211.398438 C 363.539062 211.398438 361.679688 212.75 361.679688 214.800781 C 361.679688 216.429688 362.878906 217.359375 365.84375 218.058594 L 368.347656 218.671875 C 373.011719 219.765625 374.9375 221.664062 374.9375 225.089844 C 374.9375 229.453125 371.5625 232.1875 366.175781 232.1875 C 361.128906 232.1875 357.742188 229.585938 357.492188 225.5 Z M 357.492188 225.5"/></g></svg>