<svg xmlns="http://www.w3.org/2000/svg" xmlns:xlink="http://www.w3.org/1999/xlink" width="375" viewBox="0 0 375 375" height="375" version="1.0"><defs><clipPath id="a"><path d="M 0 90 L 375 90 L 375 285 L 0 285 Z M 0 90"/></clipPath><clipPath id="b"><path d="M 0 187.53125 C 0 241.257812 83.949219 284.8125 187.496094 284.8125 C 291.042969 284.8125 374.988281 241.257812 374.988281 187.53125 C 374.988281 133.804688 291.042969 90.246094 187.496094 90.246094 C 83.949219 90.246094 0 133.804688 0 187.53125"/></clipPath><clipPath id="c"><path d="M 0 187.53125 C 0 241.257812 83.949219 284.8125 187.496094 284.8125 C 291.042969 284.8125 374.988281 241.257812 374.988281 187.53125 C 374.988281 133.804688 291.042969 90.246094 187.496094 90.246094 C 83.949219 90.246094 0 133.804688 0 187.53125"/></clipPath><radialGradient gradientTransform="matrix(1.00688 0 0 .99312 112.573 124.447)" gradientUnits="userSpaceOnUse" xlink:type="simple" r="244.528" xlink:actuate="onLoad" cx="0" id="d" cy="0" xlink:show="other" fx="0" fy="0"><stop stop-color="#AEB2D5" offset="0"/><stop stop-color="#AEB2D5" offset=".25"/><stop stop-color="#AEB2D5" offset=".297"/><stop stop-color="#ADB1D4" offset=".301"/><stop stop-color="#ACB0D4" offset=".305"/><stop stop-color="#ACB0D3" offset=".309"/><stop stop-color="#ABAFD2" offset=".313"/><stop stop-color="#AAAED2" offset=".316"/><stop stop-color="#A9ADD1" offset=".32"/><stop stop-color="#A8ACD1" offset=".324"/><stop stop-color="#A7ABD0" offset=".328"/><stop stop-color="#A6AACF" offset=".332"/><stop stop-color="#A5A9CF" offset=".336"/><stop stop-color="#A4A9CE" offset=".34"/><stop stop-color="#A4A8CD" offset=".344"/><stop stop-color="#A3A7CD" offset=".348"/><stop stop-color="#A2A6CC" offset=".352"/><stop stop-color="#A1A5CB" offset=".355"/><stop stop-color="#A0A4CB" offset=".359"/><stop stop-color="#9FA3CA" offset=".363"/><stop stop-color="#9EA2C9" offset=".367"/><stop stop-color="#9DA1C9" offset=".371"/><stop stop-color="#9CA1C8" offset=".375"/><stop stop-color="#9CA0C7" offset=".379"/><stop stop-color="#9B9FC7" offset=".383"/><stop stop-color="#9A9EC6" offset=".387"/><stop stop-color="#999DC5" offset=".391"/><stop stop-color="#989CC5" offset=".395"/><stop stop-color="#979BC4" offset=".398"/><stop stop-color="#969AC3" offset=".402"/><stop stop-color="#9599C3" offset=".406"/><stop stop-color="#9499C2" offset=".41"/><stop stop-color="#9498C1" offset=".414"/><stop stop-color="#9397C1" offset=".418"/><stop stop-color="#9296C0" offset=".422"/><stop stop-color="#9195BF" offset=".426"/><stop stop-color="#9094BF" offset=".43"/><stop stop-color="#8F93BE" offset=".434"/><stop stop-color="#8E92BD" offset=".438"/><stop stop-color="#8D91BD" offset=".441"/><stop stop-color="#8D91BC" offset=".445"/><stop stop-color="#8C90BB" offset=".449"/><stop stop-color="#8B8FBB" offset=".453"/><stop stop-color="#8A8EBA" offset=".457"/><stop stop-color="#898DB9" offset=".461"/><stop stop-color="#888CB9" offset=".465"/><stop stop-color="#878BB8" offset=".469"/><stop stop-color="#868AB7" offset=".473"/><stop stop-color="#858AB7" offset=".477"/><stop stop-color="#8589B6" offset=".48"/><stop stop-color="#8488B5" offset=".484"/><stop stop-color="#8387B5" offset=".488"/><stop stop-color="#8286B4" offset=".492"/><stop stop-color="#8185B3" offset=".496"/><stop stop-color="#8084B3" offset=".5"/><stop stop-color="#7F83B2" offset=".504"/><stop stop-color="#7E82B1" offset=".508"/><stop stop-color="#7D82B1" offset=".512"/><stop stop-color="#7D81B0" offset=".516"/><stop stop-color="#7C80B0" offset=".52"/><stop stop-color="#7B7FAF" offset=".523"/><stop stop-color="#7A7EAE" offset=".527"/><stop stop-color="#797DAE" offset=".531"/><stop stop-color="#787CAD" offset=".535"/><stop stop-color="#777BAC" offset=".539"/><stop stop-color="#767AAC" offset=".543"/><stop stop-color="#767AAB" offset=".547"/><stop stop-color="#7579AA" offset=".551"/><stop stop-color="#7478AA" offset=".555"/><stop stop-color="#7377A9" offset=".559"/><stop stop-color="#7276A8" offset=".563"/><stop stop-color="#7175A8" offset=".566"/><stop stop-color="#7074A7" offset=".57"/><stop stop-color="#6F73A6" offset=".574"/><stop stop-color="#6E73A6" offset=".578"/><stop stop-color="#6E72A5" offset=".582"/><stop stop-color="#6D71A4" offset=".586"/><stop stop-color="#6C70A4" offset=".59"/><stop stop-color="#6B6FA3" offset=".594"/><stop stop-color="#6A6EA2" offset=".598"/><stop stop-color="#696DA2" offset=".602"/><stop stop-color="#686CA1" offset=".605"/><stop stop-color="#676BA0" offset=".609"/><stop stop-color="#666BA0" offset=".613"/><stop stop-color="#666A9F" offset=".617"/><stop stop-color="#65699E" offset=".621"/><stop stop-color="#64689E" offset=".625"/><stop stop-color="#63679D" offset=".629"/><stop stop-color="#62669C" offset=".633"/><stop stop-color="#61659C" offset=".637"/><stop stop-color="#60649B" offset=".641"/><stop stop-color="#5F639A" offset=".645"/><stop stop-color="#5E639A" offset=".648"/><stop stop-color="#5E6299" offset=".652"/><stop stop-color="#5D6198" offset=".656"/><stop stop-color="#5C6098" offset=".66"/><stop stop-color="#5B5F97" offset=".664"/><stop stop-color="#5A5E96" offset=".668"/><stop stop-color="#595D96" offset=".672"/><stop stop-color="#585C95" offset=".676"/><stop stop-color="#575B94" offset=".68"/><stop stop-color="#575B94" offset=".684"/><stop stop-color="#565A93" offset=".688"/><stop stop-color="#555992" offset=".691"/><stop stop-color="#545892" offset=".695"/><stop stop-color="#535791" offset=".699"/><stop stop-color="#525691" offset=".703"/><stop stop-color="#515590" offset=".707"/><stop stop-color="#50548F" offset=".711"/><stop stop-color="#4F548F" offset=".715"/><stop stop-color="#4F538E" offset=".719"/><stop stop-color="#4E528D" offset=".723"/><stop stop-color="#4D518D" offset=".727"/><stop stop-color="#4C508C" offset=".73"/><stop stop-color="#4B4F8B" offset=".734"/><stop stop-color="#4A4E8B" offset=".738"/><stop stop-color="#494D8A" offset=".742"/><stop stop-color="#484C89" offset=".746"/><stop stop-color="#484C89" offset="1"/></radialGradient></defs><g clip-path="url(#a)"><g clip-path="url(#b)"><g clip-path="url(#c)"><path fill="url(#d)" d="M 0 90.246094 L 0 284.8125 L 374.988281 284.8125 L 374.988281 90.246094 Z M 0 90.246094"/></g></g></g><path fill="#777BB3" d="M 187.496094 277.589844 C 287 277.589844 367.664062 237.269531 367.664062 187.53125 C 367.664062 137.792969 287 97.472656 187.496094 97.472656 C 87.988281 97.472656 7.324219 137.792969 7.324219 187.53125 C 7.324219 237.269531 87.988281 277.589844 187.496094 277.589844"/><path d="M 101.863281 198.695312 C 110.046875 198.695312 116.15625 197.207031 120.019531 194.273438 C 123.84375 191.371094 126.484375 186.339844 127.867188 179.320312 C 129.15625 172.761719 128.664062 168.183594 126.40625 165.710938 C 124.097656 163.1875 119.101562 161.90625 111.558594 161.90625 L 98.484375 161.90625 L 91.234375 198.695312 Z M 59.101562 244.011719 C 58.492188 244.011719 57.917969 243.746094 57.53125 243.28125 C 57.125 242.796875 56.980469 242.242188 57.105469 241.625 L 76.316406 144.132812 C 76.359375 143.90625 76.441406 143.691406 76.5625 143.492188 C 76.683594 143.289062 76.835938 143.117188 77.019531 142.96875 C 77.199219 142.820312 77.402344 142.707031 77.625 142.628906 C 77.847656 142.550781 78.074219 142.511719 78.3125 142.511719 L 119.714844 142.511719 C 132.726562 142.511719 142.414062 145.988281 148.5 152.867188 C 154.621094 159.777344 156.511719 169.4375 154.117188 181.578125 C 153.144531 186.523438 151.46875 191.117188 149.140625 195.230469 C 146.808594 199.347656 143.726562 203.15625 139.980469 206.554688 C 135.492188 210.695312 130.414062 213.699219 124.898438 215.464844 C 119.472656 217.210938 112.503906 218.09375 104.183594 218.09375 L 87.417969 218.09375 L 82.628906 242.390625 C 82.585938 242.617188 82.503906 242.832031 82.382812 243.035156 C 82.261719 243.234375 82.109375 243.40625 81.929688 243.554688 C 81.746094 243.703125 81.542969 243.816406 81.320312 243.894531 C 81.097656 243.976562 80.871094 244.015625 80.632812 244.015625 L 59.097656 244.015625 Z M 59.101562 244.011719"/><path fill="#FFF" d="M 100.164062 163.910156 L 111.5625 163.910156 C 120.660156 163.910156 123.824219 165.882812 124.898438 167.054688 C 126.679688 169.003906 127.015625 173.113281 125.871094 178.941406 C 124.585938 185.460938 122.199219 190.085938 118.777344 192.683594 C 115.277344 195.339844 109.585938 196.6875 101.867188 196.6875 L 93.707031 196.6875 L 100.167969 163.910156 Z M 119.714844 140.5 L 78.3125 140.5 C 77.839844 140.5 77.382812 140.578125 76.9375 140.738281 C 76.492188 140.894531 76.089844 141.121094 75.726562 141.417969 C 75.359375 141.714844 75.058594 142.0625 74.816406 142.460938 C 74.574219 142.863281 74.410156 143.292969 74.320312 143.75 L 55.109375 241.246094 C 55.050781 241.535156 55.027344 241.828125 55.035156 242.125 C 55.042969 242.421875 55.085938 242.710938 55.160156 243 C 55.234375 243.285156 55.339844 243.5625 55.472656 243.824219 C 55.609375 244.089844 55.773438 244.335938 55.964844 244.5625 C 56.15625 244.792969 56.367188 244.996094 56.605469 245.179688 C 56.84375 245.359375 57.097656 245.515625 57.367188 245.640625 C 57.640625 245.765625 57.921875 245.863281 58.214844 245.925781 C 58.507812 245.992188 58.804688 246.023438 59.101562 246.023438 L 80.632812 246.023438 C 81.105469 246.023438 81.566406 245.945312 82.007812 245.789062 C 82.453125 245.628906 82.859375 245.402344 83.222656 245.105469 C 83.585938 244.8125 83.890625 244.460938 84.132812 244.0625 C 84.371094 243.664062 84.539062 243.234375 84.628906 242.777344 L 89.097656 220.105469 L 104.183594 220.105469 C 112.71875 220.105469 119.898438 219.1875 125.53125 217.378906 C 131.324219 215.519531 136.65625 212.375 141.371094 208.023438 C 145.269531 204.484375 148.492188 200.511719 150.917969 196.214844 C 153.347656 191.914062 155.101562 187.121094 156.117188 181.964844 C 158.636719 169.1875 156.589844 158.953125 150.035156 151.550781 C 143.542969 144.222656 133.34375 140.507812 119.71875 140.507812 M 88.773438 200.707031 L 101.871094 200.707031 C 110.550781 200.707031 117.015625 199.09375 121.265625 195.867188 C 125.511719 192.640625 128.378906 187.257812 129.867188 179.710938 C 131.292969 172.464844 130.644531 167.351562 127.921875 164.371094 C 125.199219 161.394531 119.746094 159.902344 111.566406 159.902344 L 96.8125 159.902344 L 88.773438 200.707031 M 119.71875 144.519531 C 132.175781 144.519531 141.261719 147.742188 146.972656 154.191406 C 152.683594 160.640625 154.402344 169.640625 152.125 181.199219 C 151.1875 185.957031 149.601562 190.3125 147.367188 194.253906 C 145.132812 198.199219 142.210938 201.808594 138.605469 205.078125 C 134.304688 209.046875 129.527344 211.875 124.273438 213.5625 C 119.015625 215.25 112.324219 216.089844 104.1875 216.089844 L 85.742188 216.089844 L 80.636719 242.011719 L 59.105469 242.011719 L 78.316406 144.527344 L 119.722656 144.527344"/><path d="M 203.484375 218.089844 C 202.878906 218.089844 202.300781 217.824219 201.917969 217.359375 C 201.53125 216.898438 201.371094 216.292969 201.488281 215.703125 L 209.984375 172.566406 C 210.792969 168.464844 210.59375 165.519531 209.425781 164.273438 C 208.710938 163.515625 206.558594 162.238281 200.199219 162.238281 L 184.800781 162.238281 L 174.117188 216.46875 C 174.074219 216.695312 173.992188 216.910156 173.871094 217.109375 C 173.75 217.308594 173.597656 217.484375 173.414062 217.632812 C 173.234375 217.78125 173.03125 217.894531 172.808594 217.972656 C 172.585938 218.050781 172.355469 218.089844 172.121094 218.089844 L 150.757812 218.089844 C 150.457031 218.089844 150.167969 218.027344 149.890625 217.898438 C 149.617188 217.773438 149.382812 217.59375 149.191406 217.359375 C 148.996094 217.128906 148.863281 216.867188 148.789062 216.578125 C 148.710938 216.289062 148.703125 215.996094 148.761719 215.703125 L 167.972656 118.210938 C 168.019531 117.984375 168.101562 117.769531 168.222656 117.570312 C 168.34375 117.367188 168.492188 117.195312 168.675781 117.046875 C 168.859375 116.898438 169.058594 116.785156 169.28125 116.707031 C 169.503906 116.628906 169.734375 116.589844 169.96875 116.589844 L 191.332031 116.589844 C 191.636719 116.589844 191.925781 116.652344 192.199219 116.78125 C 192.472656 116.90625 192.707031 117.085938 192.902344 117.316406 C 193.09375 117.550781 193.230469 117.808594 193.304688 118.101562 C 193.378906 118.390625 193.386719 118.683594 193.328125 118.976562 L 188.691406 142.507812 L 205.253906 142.507812 C 217.871094 142.507812 226.425781 144.703125 231.410156 149.214844 C 236.496094 153.820312 238.074219 161.179688 236.121094 171.101562 L 227.183594 216.46875 C 227.140625 216.695312 227.054688 216.910156 226.9375 217.113281 C 226.816406 217.3125 226.664062 217.484375 226.480469 217.632812 C 226.300781 217.78125 226.097656 217.894531 225.875 217.972656 C 225.652344 218.054688 225.421875 218.09375 225.1875 218.09375 L 203.484375 218.09375 Z M 203.484375 218.089844"/><path fill="#FFF" d="M 191.332031 114.582031 L 169.972656 114.582031 C 169.5 114.582031 169.039062 114.660156 168.597656 114.816406 C 168.152344 114.976562 167.746094 115.203125 167.382812 115.496094 C 167.019531 115.792969 166.714844 116.140625 166.472656 116.542969 C 166.234375 116.941406 166.066406 117.371094 165.976562 117.828125 L 146.765625 215.320312 C 146.710938 215.609375 146.683594 215.902344 146.695312 216.199219 C 146.703125 216.496094 146.742188 216.785156 146.816406 217.074219 C 146.890625 217.359375 146.996094 217.636719 147.132812 217.898438 C 147.265625 218.164062 147.429688 218.410156 147.621094 218.636719 C 147.8125 218.867188 148.027344 219.070312 148.261719 219.253906 C 148.5 219.433594 148.753906 219.589844 149.023438 219.714844 C 149.296875 219.839844 149.578125 219.9375 149.871094 220 C 150.164062 220.066406 150.460938 220.097656 150.761719 220.097656 L 172.121094 220.097656 C 172.59375 220.097656 173.054688 220.019531 173.496094 219.863281 C 173.941406 219.703125 174.347656 219.476562 174.710938 219.179688 C 175.074219 218.886719 175.378906 218.535156 175.621094 218.136719 C 175.859375 217.734375 176.027344 217.308594 176.117188 216.851562 L 186.480469 164.246094 L 200.199219 164.246094 C 206.550781 164.246094 207.882812 165.582031 207.9375 165.640625 C 208.320312 166.050781 208.828125 167.941406 207.992188 172.183594 L 199.492188 215.320312 C 199.4375 215.609375 199.414062 215.902344 199.421875 216.199219 C 199.429688 216.496094 199.472656 216.785156 199.542969 217.074219 C 199.617188 217.359375 199.722656 217.636719 199.859375 217.898438 C 199.996094 218.164062 200.15625 218.410156 200.347656 218.636719 C 200.539062 218.867188 200.753906 219.070312 200.992188 219.253906 C 201.226562 219.433594 201.480469 219.589844 201.753906 219.714844 C 202.023438 219.839844 202.304688 219.9375 202.597656 220 C 202.890625 220.066406 203.1875 220.097656 203.488281 220.097656 L 225.1875 220.097656 C 225.660156 220.097656 226.121094 220.019531 226.5625 219.863281 C 227.007812 219.703125 227.414062 219.476562 227.777344 219.179688 C 228.140625 218.886719 228.445312 218.535156 228.6875 218.136719 C 228.925781 217.734375 229.09375 217.308594 229.183594 216.851562 L 238.121094 171.484375 C 240.21875 160.835938 238.425781 152.84375 232.792969 147.738281 C 227.414062 142.867188 218.410156 140.5 205.257812 140.5 L 191.164062 140.5 L 195.328125 119.359375 C 195.386719 119.070312 195.410156 118.777344 195.402344 118.480469 C 195.394531 118.183594 195.351562 117.894531 195.277344 117.605469 C 195.207031 117.320312 195.101562 117.042969 194.964844 116.78125 C 194.828125 116.515625 194.664062 116.269531 194.476562 116.042969 C 194.285156 115.8125 194.070312 115.609375 193.832031 115.425781 C 193.597656 115.246094 193.34375 115.089844 193.070312 114.964844 C 192.800781 114.835938 192.515625 114.742188 192.222656 114.675781 C 191.933594 114.613281 191.636719 114.582031 191.335938 114.582031 M 191.335938 118.59375 L 186.230469 144.511719 L 205.257812 144.511719 C 217.234375 144.511719 225.492188 146.574219 230.039062 150.691406 C 234.585938 154.808594 235.945312 161.488281 234.128906 170.71875 L 225.191406 216.085938 L 203.492188 216.085938 L 211.988281 172.949219 C 212.953125 168.042969 212.597656 164.695312 210.921875 162.910156 C 209.242188 161.125 205.667969 160.230469 200.203125 160.230469 L 183.125 160.230469 L 172.121094 216.085938 L 150.761719 216.085938 L 169.972656 118.59375 L 191.332031 118.59375"/><path d="M 269.925781 198.695312 C 278.105469 198.695312 284.214844 197.207031 288.078125 194.273438 C 291.902344 191.371094 294.542969 186.339844 295.925781 179.320312 C 297.21875 172.761719 296.726562 168.183594 294.464844 165.710938 C 292.15625 163.1875 287.160156 161.90625 279.617188 161.90625 L 266.542969 161.90625 L 259.292969 198.695312 Z M 227.160156 244.011719 C 226.550781 244.011719 225.976562 243.742188 225.589844 243.28125 C 225.183594 242.792969 225.039062 242.242188 225.160156 241.621094 L 244.371094 144.132812 C 244.417969 143.902344 244.5 143.6875 244.621094 143.488281 C 244.742188 143.289062 244.894531 143.113281 245.074219 142.964844 C 245.257812 142.816406 245.460938 142.703125 245.683594 142.625 C 245.90625 142.546875 246.132812 142.507812 246.371094 142.507812 L 287.773438 142.507812 C 300.785156 142.507812 310.46875 145.984375 316.558594 152.867188 C 322.679688 159.777344 324.566406 169.433594 322.175781 181.574219 C 321.199219 186.523438 319.527344 191.113281 317.195312 195.226562 C 314.863281 199.34375 311.78125 203.152344 308.035156 206.550781 C 303.546875 210.695312 298.46875 213.695312 292.957031 215.464844 C 287.527344 217.207031 280.558594 218.09375 272.238281 218.09375 L 255.460938 218.09375 L 250.675781 242.386719 C 250.632812 242.617188 250.546875 242.832031 250.429688 243.03125 C 250.308594 243.230469 250.15625 243.40625 249.972656 243.554688 C 249.792969 243.703125 249.589844 243.816406 249.367188 243.894531 C 249.144531 243.972656 248.914062 244.011719 248.679688 244.011719 L 227.148438 244.011719 Z M 227.160156 244.011719"/><path fill="#FFF" d="M 268.222656 163.910156 L 279.621094 163.910156 C 288.722656 163.910156 291.882812 165.882812 292.957031 167.054688 C 294.742188 169.003906 295.078125 173.113281 293.929688 178.9375 C 292.644531 185.460938 290.257812 190.085938 286.839844 192.683594 C 283.335938 195.339844 277.648438 196.6875 269.925781 196.6875 L 261.765625 196.6875 Z M 287.773438 140.5 L 246.367188 140.5 C 245.898438 140.5 245.4375 140.578125 244.996094 140.738281 C 244.550781 140.894531 244.144531 141.121094 243.78125 141.417969 C 243.417969 141.714844 243.113281 142.0625 242.871094 142.460938 C 242.632812 142.863281 242.464844 143.292969 242.375 143.75 L 223.164062 241.246094 C 223.105469 241.535156 223.082031 241.828125 223.089844 242.125 C 223.097656 242.421875 223.140625 242.710938 223.214844 243 C 223.289062 243.285156 223.394531 243.5625 223.527344 243.824219 C 223.664062 244.089844 223.828125 244.335938 224.019531 244.5625 C 224.210938 244.792969 224.421875 244.996094 224.660156 245.179688 C 224.898438 245.359375 225.152344 245.515625 225.421875 245.640625 C 225.691406 245.765625 225.976562 245.863281 226.269531 245.925781 C 226.5625 245.992188 226.855469 246.023438 227.15625 246.023438 L 248.6875 246.023438 C 249.160156 246.023438 249.617188 245.945312 250.0625 245.789062 C 250.507812 245.628906 250.914062 245.402344 251.277344 245.105469 C 251.640625 244.8125 251.945312 244.460938 252.183594 244.0625 C 252.425781 243.664062 252.59375 243.234375 252.683594 242.777344 L 257.148438 220.105469 L 272.238281 220.105469 C 280.769531 220.105469 287.953125 219.1875 293.585938 217.378906 C 299.378906 215.519531 304.707031 212.375 309.425781 208.023438 C 313.328125 204.484375 316.539062 200.511719 318.972656 196.214844 C 321.40625 191.914062 323.15625 187.121094 324.171875 181.964844 C 326.691406 169.183594 324.644531 158.953125 318.089844 151.550781 C 311.597656 144.222656 301.398438 140.507812 287.773438 140.507812 M 256.828125 200.707031 L 269.921875 200.707031 C 278.605469 200.707031 285.070312 199.09375 289.320312 195.867188 C 293.566406 192.640625 296.433594 187.257812 297.921875 179.710938 C 299.347656 172.464844 298.699219 167.351562 295.976562 164.371094 C 293.253906 161.394531 287.796875 159.902344 279.621094 159.902344 L 264.867188 159.902344 L 256.828125 200.707031 M 287.773438 144.519531 C 300.226562 144.519531 309.316406 147.742188 315.027344 154.191406 C 320.738281 160.640625 322.457031 169.640625 320.179688 181.199219 C 319.242188 185.957031 317.652344 190.3125 315.421875 194.253906 C 313.1875 198.199219 310.265625 201.808594 306.65625 205.078125 C 302.359375 209.046875 297.582031 211.875 292.328125 213.5625 C 287.070312 215.25 280.378906 216.089844 272.238281 216.089844 L 253.796875 216.089844 L 248.691406 242.011719 L 227.160156 242.011719 L 246.371094 144.519531 L 287.773438 144.519531"/></svg>