<svg xmlns="http://www.w3.org/2000/svg" xmlns:xlink="http://www.w3.org/1999/xlink" width="375" viewBox="0 0 375 375" height="375" version="1.0"><defs><clipPath id="a"><path d="M 0 0 L 279 0 L 279 279 L 0 279 Z M 0 0"/></clipPath><clipPath id="b"><path d="M 186.207031 -0.0390625 C 91.046875 -0.0390625 96.988281 41.203125 96.988281 41.203125 L 97.09375 83.929688 L 187.894531 83.929688 L 187.894531 96.761719 L 61.027344 96.761719 C 61.027344 96.761719 0.136719 89.859375 0.136719 185.816406 C 0.136719 281.785156 53.285156 278.382812 53.285156 278.382812 L 85 278.382812 L 85 233.84375 C 85 233.84375 83.292969 180.726562 137.300781 180.726562 L 227.363281 180.726562 C 227.363281 180.726562 277.957031 181.550781 277.957031 131.855469 L 277.957031 49.6875 C 277.957031 49.6875 285.648438 -0.0390625 186.207031 -0.0390625 Z M 136.132812 28.691406 C 145.167969 28.691406 152.464844 35.992188 152.464844 45.019531 C 152.464844 54.050781 145.167969 61.347656 136.132812 61.347656 C 127.097656 61.347656 119.796875 54.050781 119.796875 45.019531 C 119.796875 35.992188 127.097656 28.691406 136.132812 28.691406 Z M 136.132812 28.691406"/></clipPath><clipPath id="d"><path d="M 97 94 L 375 94 L 375 372.75 L 97 372.75 Z M 97 94"/></clipPath><clipPath id="e"><path d="M 188.910156 372.648438 C 284.0625 372.648438 278.117188 331.398438 278.117188 331.398438 L 278.015625 288.664062 L 187.207031 288.664062 L 187.207031 275.84375 L 314.078125 275.84375 C 314.078125 275.84375 374.972656 282.738281 374.972656 186.785156 C 374.972656 90.820312 321.828125 94.222656 321.828125 94.222656 L 290.109375 94.222656 L 290.109375 138.753906 C 290.109375 138.753906 291.8125 191.875 237.8125 191.875 L 147.738281 191.875 C 147.738281 191.875 97.144531 191.054688 97.144531 240.753906 L 97.144531 322.917969 C 97.144531 322.917969 89.460938 372.648438 188.910156 372.648438 Z M 238.972656 343.910156 C 229.945312 343.910156 222.636719 336.605469 222.636719 327.582031 C 222.636719 318.546875 229.945312 311.253906 238.972656 311.253906 C 248.015625 311.253906 255.308594 318.546875 255.308594 327.582031 C 255.308594 336.605469 248.015625 343.910156 238.972656 343.910156 Z M 238.972656 343.910156"/></clipPath><linearGradient x1=".004" gradientTransform="matrix(277.95653 0 0 278.43761 .137 -.04)" y1="-.004" x2="1.028" gradientUnits="userSpaceOnUse" y2="1.012" xlink:type="simple" xlink:actuate="onLoad" id="c" xlink:show="other"><stop stop-color="#387EB8" offset="0"/><stop stop-color="#387EB8" offset=".125"/><stop stop-color="#387EB8" offset=".141"/><stop stop-color="#387DB7" offset=".156"/><stop stop-color="#387DB6" offset=".172"/><stop stop-color="#387CB5" offset=".188"/><stop stop-color="#387CB4" offset=".203"/><stop stop-color="#387BB3" offset=".219"/><stop stop-color="#387BB2" offset=".234"/><stop stop-color="#387AB1" offset=".25"/><stop stop-color="#387AB1" offset=".266"/><stop stop-color="#3879B0" offset=".281"/><stop stop-color="#3879AF" offset=".297"/><stop stop-color="#3878AE" offset=".313"/><stop stop-color="#3778AD" offset=".328"/><stop stop-color="#3777AC" offset=".344"/><stop stop-color="#3777AB" offset=".359"/><stop stop-color="#3776AB" offset=".375"/><stop stop-color="#3776AA" offset=".391"/><stop stop-color="#3775A9" offset=".406"/><stop stop-color="#3775A8" offset=".422"/><stop stop-color="#3774A7" offset=".438"/><stop stop-color="#3774A6" offset=".453"/><stop stop-color="#3773A5" offset=".469"/><stop stop-color="#3773A4" offset=".484"/><stop stop-color="#3772A4" offset=".494"/><stop stop-color="#3772A3" offset=".5"/><stop stop-color="#3772A3" offset=".506"/><stop stop-color="#3771A2" offset=".516"/><stop stop-color="#3771A2" offset=".531"/><stop stop-color="#3771A1" offset=".547"/><stop stop-color="#3770A0" offset=".563"/><stop stop-color="#37709F" offset=".578"/><stop stop-color="#376F9E" offset=".594"/><stop stop-color="#376F9D" offset=".609"/><stop stop-color="#376E9D" offset=".625"/><stop stop-color="#366E9C" offset=".641"/><stop stop-color="#366D9B" offset=".656"/><stop stop-color="#366D9A" offset=".672"/><stop stop-color="#366C99" offset=".688"/><stop stop-color="#366C98" offset=".703"/><stop stop-color="#366B97" offset=".719"/><stop stop-color="#366B97" offset=".734"/><stop stop-color="#366A96" offset=".75"/><stop stop-color="#366A95" offset=".766"/><stop stop-color="#366994" offset=".781"/><stop stop-color="#366994" offset=".813"/><stop stop-color="#366994" offset=".875"/><stop stop-color="#366994" offset="1"/></linearGradient><linearGradient x1="-.033" gradientTransform="matrix(277.96496 0 0 278.43902 97.008 94.208)" y1="-.006" x2="1.014" gradientUnits="userSpaceOnUse" y2=".985" xlink:type="simple" xlink:actuate="onLoad" id="f" xlink:show="other"><stop stop-color="#FFE052" offset="0"/><stop stop-color="#FFE052" offset=".125"/><stop stop-color="#FFE052" offset=".188"/><stop stop-color="#FFE052" offset=".219"/><stop stop-color="#FFDF51" offset=".234"/><stop stop-color="#FFDF51" offset=".25"/><stop stop-color="#FFDE50" offset=".266"/><stop stop-color="#FFDD4F" offset=".281"/><stop stop-color="#FFDD4E" offset=".297"/><stop stop-color="#FFDC4E" offset=".313"/><stop stop-color="#FFDB4D" offset=".328"/><stop stop-color="#FFDB4C" offset=".344"/><stop stop-color="#FFDA4B" offset=".359"/><stop stop-color="#FFD94B" offset=".375"/><stop stop-color="#FFD94A" offset=".391"/><stop stop-color="#FFD849" offset=".406"/><stop stop-color="#FFD748" offset=".422"/><stop stop-color="#FFD748" offset=".438"/><stop stop-color="#FFD647" offset=".453"/><stop stop-color="#FFD546" offset=".469"/><stop stop-color="#FFD545" offset=".483"/><stop stop-color="#FFD445" offset=".484"/><stop stop-color="#FFD445" offset=".5"/><stop stop-color="#FFD444" offset=".516"/><stop stop-color="#FFD343" offset=".517"/><stop stop-color="#FFD343" offset=".531"/><stop stop-color="#FFD242" offset=".547"/><stop stop-color="#FFD242" offset=".563"/><stop stop-color="#FFD141" offset=".578"/><stop stop-color="#FFD040" offset=".594"/><stop stop-color="#FFD03F" offset=".609"/><stop stop-color="#FFCF3F" offset=".625"/><stop stop-color="#FFCE3E" offset=".641"/><stop stop-color="#FFCE3D" offset=".656"/><stop stop-color="#FFCD3C" offset=".672"/><stop stop-color="#FFCC3C" offset=".688"/><stop stop-color="#FFCC3B" offset=".703"/><stop stop-color="#FFCB3A" offset=".719"/><stop stop-color="#FFCA39" offset=".734"/><stop stop-color="#FFCA39" offset=".75"/><stop stop-color="#FFC938" offset=".766"/><stop stop-color="#FFC837" offset=".781"/><stop stop-color="#FFC836" offset=".797"/><stop stop-color="#FFC735" offset=".813"/><stop stop-color="#FFC635" offset=".828"/><stop stop-color="#FFC634" offset=".844"/><stop stop-color="#FFC533" offset=".859"/><stop stop-color="#FFC432" offset=".875"/><stop stop-color="#FFC432" offset=".891"/><stop stop-color="#FFC331" offset=".906"/><stop stop-color="#FFC331" offset=".938"/><stop stop-color="#FFC331" offset="1"/></linearGradient></defs><g clip-path="url(#a)"><g clip-path="url(#b)"><path fill="url(#c)" d="M 0.136719 0 L 0.136719 281.785156 L 285.648438 281.785156 L 285.648438 0 Z M 0.136719 0"/></g></g><g clip-path="url(#d)"><g clip-path="url(#e)"><path fill="url(#f)" d="M 89.460938 90.820312 L 89.460938 372.648438 L 374.972656 372.648438 L 374.972656 90.820312 Z M 89.460938 90.820312"/></g></g></svg>