<svg xmlns="http://www.w3.org/2000/svg" width="375" viewBox="0 0 375 375" height="375" version="1.0"><defs><clipPath id="a"><path d="M 0 122.046875 L 147 122.046875 L 147 253.296875 L 0 253.296875 Z M 0 122.046875"/></clipPath></defs><path fill="#00D8FF" d="M 84.683594 187.554688 C 84.683594 188.382812 84.601562 189.203125 84.441406 190.011719 C 84.28125 190.824219 84.042969 191.613281 83.726562 192.375 C 83.410156 193.140625 83.023438 193.867188 82.566406 194.554688 C 82.105469 195.242188 81.585938 195.878906 81.003906 196.464844 C 80.417969 197.050781 79.785156 197.574219 79.097656 198.03125 C 78.410156 198.492188 77.6875 198.878906 76.925781 199.195312 C 76.164062 199.511719 75.375 199.753906 74.566406 199.914062 C 73.757812 200.074219 72.941406 200.15625 72.117188 200.15625 C 71.289062 200.15625 70.472656 200.074219 69.664062 199.914062 C 68.855469 199.753906 68.070312 199.511719 67.304688 199.195312 C 66.542969 198.878906 65.820312 198.492188 65.132812 198.03125 C 64.449219 197.574219 63.8125 197.050781 63.230469 196.464844 C 62.644531 195.878906 62.125 195.242188 61.667969 194.554688 C 61.207031 193.867188 60.820312 193.140625 60.503906 192.375 C 60.1875 191.613281 59.949219 190.824219 59.789062 190.011719 C 59.628906 189.203125 59.546875 188.382812 59.546875 187.554688 C 59.546875 186.726562 59.628906 185.90625 59.789062 185.097656 C 59.949219 184.285156 60.1875 183.496094 60.503906 182.730469 C 60.820312 181.96875 61.207031 181.242188 61.667969 180.554688 C 62.125 179.867188 62.644531 179.230469 63.230469 178.644531 C 63.8125 178.058594 64.449219 177.535156 65.132812 177.078125 C 65.820312 176.617188 66.542969 176.230469 67.304688 175.914062 C 68.070312 175.59375 68.855469 175.355469 69.664062 175.195312 C 70.472656 175.035156 71.289062 174.953125 72.117188 174.953125 C 72.941406 174.953125 73.757812 175.035156 74.566406 175.195312 C 75.375 175.355469 76.164062 175.59375 76.925781 175.914062 C 77.6875 176.230469 78.410156 176.617188 79.097656 177.078125 C 79.785156 177.535156 80.417969 178.058594 81.003906 178.644531 C 81.585938 179.230469 82.105469 179.867188 82.566406 180.554688 C 83.023438 181.242188 83.410156 181.96875 83.726562 182.730469 C 84.042969 183.496094 84.28125 184.285156 84.441406 185.097656 C 84.601562 185.90625 84.683594 186.726562 84.683594 187.554688 Z M 84.683594 187.554688"/><path transform="matrix(.25051 0 0 .25119 4.594 127.865)" fill="none" d="M 269.535897 135.631226 C 336.881536 135.631226 399.455754 145.288465 446.639802 161.539376 C 503.491435 181.102674 538.435074 210.774193 538.435074 237.630962 C 538.435074 265.622962 501.386396 297.129512 440.355872 317.361508 C 394.200954 332.64825 333.466696 340.625969 269.535897 340.625969 C 203.983439 340.625969 141.908192 333.130334 95.238709 317.190445 C 36.188481 297.005103 0.621127 265.094224 0.621127 237.630962 C 0.621127 210.991909 33.989885 181.553656 90.030688 162.021461 C 137.386258 145.506181 201.504171 135.631226 269.520304 135.631226 Z M 269.535897 135.631226" stroke="#00D8FF" stroke-width="24"/><g clip-path="url(#a)" fill="none" stroke="#00D8FF" stroke-width="24"><path transform="matrix(.25051 0 0 .25119 4.594 127.865)" d="M 180.734458 186.918789 C 214.383888 128.571021 254.020983 79.196244 291.66219 46.445604 C 337.006279 6.976885 380.167364 -8.480919 403.431938 4.939689 C 427.678863 18.920138 436.473246 66.755355 423.499972 129.737355 C 413.692052 177.354856 390.255956 233.945349 358.321743 289.338406 C 325.576699 346.131063 288.075828 396.158987 250.933594 428.614155 C 203.967846 469.669088 158.545793 484.53595 134.766654 470.81987 C 111.673602 457.52367 102.848034 413.902804 113.93457 355.586138 C 123.274703 306.320219 146.757577 245.8575 180.734458 186.93434 Z M 180.734458 186.918789"/><path transform="matrix(.25051 0 0 .25119 4.594 127.865)" d="M 180.812422 289.478366 C 147.085028 231.192802 124.101126 172.207438 114.511506 123.23699 C 102.972777 64.236075 111.127852 19.122303 134.376832 5.655041 C 158.592572 -8.35651 204.435632 7.909952 252.508474 50.597751 C 288.871065 82.881857 326.200414 131.432426 358.228185 186.763278 C 391.082379 243.509282 415.68794 300.986188 425.27756 349.350143 C 437.393226 410.559315 427.585306 457.337057 403.82176 471.084239 C 380.759894 484.442643 338.565567 470.306683 293.580114 431.584417 C 255.564678 398.880431 214.898453 348.339321 180.812422 289.462815 Z M 180.812422 289.478366"/></g><path fill="#00D8FF" d="M 211.617188 219.75 L 196.214844 196.414062 C 204 195.726562 211.015625 190.070312 211.015625 179.738281 C 211.015625 169.222656 203.574219 162.492188 193.132812 162.492188 L 170.207031 162.492188 L 170.207031 219.707031 L 177.308594 219.707031 L 177.308594 196.972656 L 188.691406 196.972656 L 203.234375 219.707031 Z M 192.285156 190.757812 L 177.3125 190.757812 L 177.3125 168.882812 L 192.285156 168.882812 C 199.046875 168.882812 203.664062 173.339844 203.664062 179.777344 C 203.664062 186.214844 199.042969 190.761719 192.285156 190.761719 Z M 238.054688 220.777344 C 244.816406 220.777344 250.375 218.546875 254.480469 214.433594 L 251.402344 210.226562 C 248.148438 213.574219 243.359375 215.457031 238.65625 215.457031 C 229.761719 215.457031 224.28125 208.9375 223.769531 201.136719 L 257.214844 201.136719 L 257.214844 199.503906 C 257.214844 187.070312 249.859375 177.285156 237.363281 177.285156 C 225.558594 177.285156 217.007812 186.980469 217.007812 198.988281 C 217.007812 211.945312 225.820312 220.742188 238.050781 220.742188 Z M 250.890625 196.410156 L 223.773438 196.410156 C 224.117188 190.066406 228.472656 182.597656 237.289062 182.597656 C 246.699219 182.597656 250.804688 190.234375 250.890625 196.410156 Z M 299.832031 219.746094 L 299.832031 191.265625 C 299.832031 181.230469 292.5625 177.28125 283.832031 177.28125 C 277.070312 177.28125 271.769531 179.511719 267.324219 184.144531 L 270.316406 188.605469 C 273.996094 184.660156 278.019531 182.859375 282.980469 182.859375 C 288.96875 182.859375 293.417969 186.03125 293.417969 191.609375 L 293.417969 199.070312 C 290.082031 195.207031 285.378906 193.40625 279.730469 193.40625 C 272.714844 193.40625 265.265625 197.78125 265.265625 207.046875 C 265.265625 216.050781 272.707031 220.773438 279.730469 220.773438 C 285.289062 220.773438 290 218.800781 293.417969 215.027344 L 293.417969 219.738281 Z M 282.039062 216.144531 C 276.050781 216.144531 271.855469 212.371094 271.855469 207.136719 C 271.855469 201.816406 276.050781 198.042969 282.039062 198.042969 C 286.574219 198.042969 290.933594 199.757812 293.417969 203.191406 L 293.417969 211 C 290.9375 214.429688 286.574219 216.148438 282.039062 216.148438 Z M 330.855469 220.777344 C 338.382812 220.777344 342.832031 217.6875 346 213.574219 L 341.722656 209.628906 C 338.984375 213.316406 335.476562 215.03125 331.234375 215.03125 C 322.421875 215.03125 316.953125 208.167969 316.953125 198.988281 C 316.953125 189.8125 322.425781 183.035156 331.234375 183.035156 C 335.511719 183.035156 339.019531 184.667969 341.722656 188.4375 L 346 184.496094 C 342.835938 180.375 338.382812 177.289062 330.855469 177.289062 C 318.535156 177.289062 310.238281 186.726562 310.238281 198.992188 C 310.238281 211.347656 318.535156 220.746094 330.855469 220.746094 Z M 365.425781 220.777344 C 369.183594 220.777344 371.5 219.660156 373.125 218.117188 L 371.246094 213.316406 C 370.390625 214.257812 368.714844 215.03125 366.882812 215.03125 C 364.0625 215.03125 362.6875 212.800781 362.6875 209.710938 L 362.6875 183.976562 L 371.074219 183.976562 L 371.074219 178.316406 L 362.6875 178.316406 L 362.6875 166.992188 L 356.269531 166.992188 L 356.269531 178.316406 L 349.421875 178.316406 L 349.421875 183.980469 L 356.269531 183.980469 L 356.269531 211.089844 C 356.269531 217.265625 359.347656 220.785156 365.425781 220.785156 Z M 365.425781 220.777344" fill-rule="evenodd"/></svg>